<svg width="24" height="26" viewBox="0 0 24 26" fill="none" xmlns="http://www.w3.org/2000/svg">
<path fill-rule="evenodd" clip-rule="evenodd" d="M19 26H5C3.896 26 3 25.104 3 24V7H1.3C1.13431 7 1 6.86569 1 6.7V5.3C1 5.13431 1.13431 5 1.3 5H8V2.5C8 1.673 8.673 1 9.5 1H14.5C15.325 1 16 1.671 16 2.5V5H22.7C22.8657 5 23 5.13431 23 5.3V6.7C23 6.86569 22.8657 7 22.7 7H21V24C21 25.104 20.104 26 19 26ZM19 7H5V23.5C5 23.776 5.224 24 5.5 24H18.5C18.776 24 19 23.776 19 23.5V7ZM12 14.586L15.0809 11.5051C15.198 11.388 15.388 11.388 15.5051 11.5051L16.4949 12.4949C16.612 12.612 16.612 12.802 16.4949 12.9191L13.414 16L16.4949 19.0809C16.612 19.198 16.612 19.388 16.4949 19.5051L15.5051 20.4949C15.388 20.612 15.198 20.612 15.0809 20.4949L12 17.414L8.91913 20.4949C8.80197 20.612 8.61203 20.612 8.49487 20.4949L7.50513 19.5051C7.38797 19.388 7.38797 19.198 7.50513 19.0809L10.586 16L7.50513 12.9191C7.38797 12.802 7.38797 12.612 7.50513 12.4949L8.49487 11.5051C8.61203 11.388 8.80197 11.388 8.91913 11.5051L12 14.586ZM14 3H10V5H14V3Z" fill="black"/>
</svg>
