<svg width="80" height="47" viewBox="0 0 80 47" fill="none" xmlns="http://www.w3.org/2000/svg">
<path fill-rule="evenodd" clip-rule="evenodd" d="M79.7742 4.09336C79.8989 4.20223 79.9119 4.39158 79.8031 4.51644L42.9984 46.7722C42.8891 46.8977 42.6984 46.9102 42.5736 46.8L20.2243 27.0553C20.1003 26.9458 20.0884 26.7566 20.1976 26.6324L24.1981 22.0809C24.3077 21.9562 24.4977 21.9443 24.6221 22.0542L42.2 37.5866L74.886 0.225501C74.995 0.100914 75.1844 0.0881583 75.3091 0.196997L79.7742 4.09336ZM4.19787 22.0812C4.30754 21.9564 4.49773 21.9445 4.6221 22.0546L26.9559 41.833C27.0798 41.9427 27.0915 42.1319 26.9821 42.256L22.9986 46.7747C22.8889 46.8991 22.6992 46.9109 22.5749 46.8012L0.224258 27.0553C0.100312 26.9458 0.0883673 26.7566 0.197555 26.6324L4.19787 22.0812ZM35.5449 22.7845C35.4221 22.675 35.4105 22.4871 35.5187 22.3633L54.8627 0.225836C54.9717 0.101099 55.1611 0.08831 55.2859 0.197268L59.7744 4.11694C59.8991 4.22579 59.912 4.41501 59.8034 4.53984L40.4627 26.7656C40.353 26.8917 40.1614 26.9038 40.0367 26.7926L35.5449 22.7845Z" fill="black"/>
</svg>
