<svg width="24" height="14" viewBox="0 0 24 14" fill="none" xmlns="http://www.w3.org/2000/svg">
<path fill-rule="evenodd" clip-rule="evenodd" d="M23.7719 1.08034C23.8976 1.18931 23.9107 1.37982 23.8009 1.50491L13.0378 13.7745C12.9286 13.899 12.739 13.9114 12.6145 13.8022L6.22655 8.19873C6.1016 8.08912 6.08958 7.89881 6.19975 7.77435L7.12103 6.73364C7.23051 6.60997 7.41936 6.59805 7.54351 6.70698L12.66 11.196L22.3283 0.223223C22.4372 0.0996408 22.6254 0.0869633 22.7499 0.194822L23.7719 1.08034ZM1.12081 6.73388C1.23038 6.61011 1.41941 6.59829 1.54354 6.70744L7.92762 12.3209C8.05247 12.4307 8.06424 12.6211 7.95387 12.7454L7.03799 13.777C6.92845 13.9004 6.73985 13.9121 6.61582 13.8033L0.226551 8.19873C0.101596 8.08912 0.0895788 7.89881 0.199752 7.77435L1.12081 6.73388ZM10.8208 6.92628C10.6971 6.81667 10.6853 6.62763 10.7945 6.50354L16.3213 0.223556C16.4301 0.099824 16.6185 0.0871131 16.743 0.19509L17.7721 1.08742C17.8978 1.19637 17.9108 1.38674 17.8012 1.51182L12.2778 7.81417C12.1682 7.93925 11.9777 7.95128 11.8532 7.84098L10.8208 6.92628Z" fill="#D3D7DB"/>
</svg>
