<svg width="24" height="27" viewBox="0 0 24 27" fill="none" xmlns="http://www.w3.org/2000/svg">
<path fill-rule="evenodd" clip-rule="evenodd" d="M12.1748 24.3647V16.1051C12.1765 15.5759 12.3875 15.0689 12.7617 14.6947C13.1359 14.3205 13.643 14.1095 14.1722 14.1078H22.0027C22.5319 14.1095 23.0389 14.3205 23.4131 14.6947C23.7873 15.0689 23.9983 15.5759 24 16.1051V24.3647C23.9983 24.8939 23.7873 25.4009 23.4131 25.7751C23.0389 26.1494 22.5319 26.3603 22.0027 26.362H14.1722C13.643 26.3603 13.1359 26.1494 12.7617 25.7751C12.3875 25.4009 12.1765 24.8939 12.1748 24.3647ZM12.7627 2.46071L16.9654 6.39743H12.7627V2.46071ZM4.44516 14.8844C4.32564 14.8911 4.21356 14.9446 4.13324 15.0333C4.05292 15.1221 4.01082 15.2389 4.01609 15.3585C4.01233 15.418 4.02052 15.4777 4.04018 15.5339C4.05984 15.5902 4.09058 15.642 4.13057 15.6861C4.17057 15.7303 4.21901 15.7661 4.27304 15.7912C4.32707 15.8164 4.3856 15.8305 4.44516 15.8327H9.71842V14.8844H4.44516ZM4.44516 8.0901C4.32564 8.09676 4.21356 8.15028 4.13324 8.23903C4.05292 8.32779 4.01082 8.44464 4.01609 8.56423C4.01262 8.62365 4.02102 8.68316 4.04079 8.7393C4.06056 8.79544 4.09132 8.84708 4.13125 8.89122C4.17119 8.93535 4.21952 8.97109 4.27341 8.99635C4.32731 9.02161 4.38569 9.03589 4.44516 9.03835H9.32153C9.44106 9.03169 9.55313 8.97818 9.63346 8.88942C9.71378 8.80066 9.75587 8.68382 9.7506 8.56423C9.75378 8.50487 9.74518 8.44548 9.7253 8.38946C9.70542 8.33344 9.67465 8.28192 9.63477 8.23785C9.59488 8.19377 9.54667 8.15803 9.49291 8.13267C9.43915 8.10732 9.38091 8.09285 9.32153 8.0901H4.44516ZM4.44516 11.4883C4.32564 11.495 4.21356 11.5485 4.13324 11.6373C4.05292 11.726 4.01082 11.8429 4.01609 11.9625C4.01291 12.0218 4.02151 12.0812 4.04139 12.1372C4.06127 12.1932 4.09204 12.2448 4.13193 12.2888C4.17181 12.3329 4.22002 12.3687 4.27378 12.394C4.32754 12.4194 4.38578 12.4338 4.44516 12.4366H12.6919C12.8112 12.4294 12.9229 12.3757 13.0032 12.2871C13.0834 12.1984 13.1256 12.0819 13.1209 11.9625C13.1244 11.903 13.116 11.8435 13.0962 11.7874C13.0765 11.7312 13.0457 11.6796 13.0058 11.6355C12.9658 11.5913 12.9175 11.5556 12.8636 11.5303C12.8097 11.5051 12.7513 11.4908 12.6919 11.4883H4.44516ZM19.3081 6.96165C19.3083 6.80931 19.2587 6.66108 19.167 6.53949C19.0752 6.4179 18.9462 6.3296 18.7997 6.28801L12.6018 0.257443C12.5371 0.176886 12.4551 0.111919 12.3619 0.0673541C12.2687 0.0227895 12.1666 -0.000229756 12.0633 1.83067e-06H1.25932C1.09405 -0.000280209 0.930337 0.0320294 0.777562 0.095082C0.624788 0.158135 0.485945 0.250693 0.368978 0.36746C0.252011 0.484227 0.159217 0.622912 0.0959037 0.77558C0.0325907 0.928247 1.98379e-06 1.0919 2.22443e-06 1.25718V22.7943C-0.000309464 22.9597 0.0321372 23.1236 0.09547 23.2764C0.158803 23.4292 0.251768 23.5679 0.369002 23.6846C0.605984 23.9192 0.925852 24.051 1.25932 24.0515H9.73773V22.6463H1.4052V1.40735H11.3575V7.09681C11.3575 7.284 11.4318 7.46353 11.5642 7.5959C11.6966 7.72826 11.8761 7.80263 12.0633 7.80263H17.8986V12.4044H19.3081V6.96165ZM16.2789 19.2373L17.3022 20.1984L19.7372 17.7227C19.9517 17.5082 20.0912 17.328 20.3593 17.6026L21.2175 18.4907C21.5028 18.7718 21.4878 18.937 21.2175 19.1987L17.8064 22.5776C17.24 23.1333 17.3365 23.1676 16.7637 22.5948L14.8329 20.664C14.8052 20.6387 14.7834 20.6076 14.7693 20.5728C14.7551 20.5381 14.749 20.5006 14.7512 20.4631C14.7535 20.4256 14.7641 20.3892 14.7823 20.3564C14.8006 20.3235 14.8259 20.2952 14.8565 20.2735L15.8648 19.2287C16.0172 19.0721 16.1373 19.0829 16.2939 19.2287L16.2789 19.2373Z" fill="black"/>
</svg>
