<svg
  xmlns="http://www.w3.org/2000/svg"
  width="200px"
  height="200px"
  viewBox="0 0 1024 1024"
  version="1.1"
>
  <path d="M738.742857 424.228571v473.234286c0 57.782857-40.96 104.594286-91.428571 104.594286h-380.342857c-50.468571 0-91.428571-46.811429-91.428572-104.594286V424.228571c0-8.045714 6.582857-14.628571 14.628572-14.628571h533.942857c8.045714 0 14.628571 6.582857 14.628571 14.628571z" fill="#C4F9C9" />
  <path d="M647.314286 1020.342857h-380.342857c-60.708571 0-109.714286-54.857143-109.714286-122.88V424.228571c0-18.285714 14.628571-32.914286 32.914286-32.914285h533.942857c18.285714 0 32.914286 14.628571 32.914285 32.914285v473.234286c0 68.022857-49.005714 122.88-109.714285 122.88z m-453.485715-592.457143v469.577143c0 47.542857 32.914286 86.308571 73.142858 86.308572h380.342857c40.228571 0 73.142857-38.765714 73.142857-86.308572V427.885714h-526.628572z" fill="#303030" />
  <path d="M275.017143 559.542857c8.777143 24.868571 24.868571 36.571429 52.662857 36.571429 27.062857 0 43.154286-10.971429 51.2-36.571429V396.434286h324.754286c57.782857 0 105.325714-49.005714 105.325714-109.714286v-17.554286c0-60.708571-47.542857-109.714286-105.325714-109.714285H643.657143c-10.971429 0-20.48-6.582857-24.868572-16.822858-35.84-84.114286-87.771429-124.342857-157.988571-124.342857-69.485714 0-117.76 39.497143-146.285714 122.88-3.657143 10.971429-13.897143 18.285714-25.6 18.285715h-70.948572c-57.782857 0-105.325714 49.005714-105.325714 109.714285v17.554286c0 60.708571 47.542857 109.714286 105.325714 109.714286h56.32v163.108571z" fill="#F7DD01" />
  <path d="M326.948571 614.4c-35.108571 0-58.514286-16.091429-69.485714-49.005714l-0.731428-2.925715V414.72h-38.034286C150.674286 414.72 95.085714 357.668571 95.085714 286.72v-17.554286c0-70.217143 55.588571-128 123.611429-128h70.948571c3.657143 0 6.582857-2.194286 8.045715-5.851428C327.68 45.348571 383.268571 0 460.8 0c78.262857 0 136.777143 46.08 174.811429 136.045714 1.462857 2.925714 4.388571 5.12 8.045714 5.12h59.977143c68.022857 0 123.611429 57.051429 123.611428 128v17.554286c0 70.217143-55.588571 128-123.611428 128h-307.2v147.748571l-0.731429 2.925715c-10.24 32.182857-33.645714 49.005714-68.754286 49.005714z m-33.645714-58.514286c6.582857 15.36 16.091429 21.942857 34.377143 21.942857s27.062857-5.851429 32.914286-21.211428V378.148571h343.04c47.542857 0 87.04-40.96 87.04-91.428571v-17.554286c0-50.468571-38.765714-91.428571-87.04-91.428571H643.657143c-18.285714 0-34.377143-10.971429-41.691429-27.794286C569.051429 72.411429 524.434286 36.571429 460.8 36.571429c-62.171429 0-103.131429 35.108571-128.731429 110.445714-6.582857 18.285714-23.405714 30.72-42.422857 30.72h-70.948571C170.422857 177.737143 131.657143 218.697143 131.657143 269.165714v17.554286c0 50.468571 38.765714 91.428571 87.04 91.428571h74.605714V555.885714z" fill="#303030" />
  <path d="M654.628571 811.885714h-43.154285c-5.851429 0-10.971429-5.12-10.971429-10.971428s5.12-10.971429 10.971429-10.971429h43.154285c5.851429 0 10.971429 5.12 10.971429 10.971429s-5.12 10.971429-10.971429 10.971428z" fill="#FF6376" />
  <path d="M438.857143 797.257143c-20.48 0-36.571429-17.554286-36.571429-39.497143 0-6.582857 5.12-11.702857 10.971429-11.702857s10.971429 5.12 10.971428 11.702857c0 8.045714 6.582857 15.36 13.897143 15.36 8.045714 0 13.897143-6.582857 13.897143-15.36 0-6.582857 5.12-11.702857 10.971429-11.702857s10.971429 5.12 10.971428 11.702857c1.462857 21.942857-14.628571 39.497143-35.108571 39.497143z" fill="#202021" />
  <path d="M490.057143 797.257143c-20.48 0-36.571429-17.554286-36.571429-39.497143 0-6.582857 5.12-11.702857 10.971429-11.702857s10.971429 5.12 10.971428 11.702857c0 8.045714 6.582857 15.36 13.897143 15.36 8.045714 0 13.897143-6.582857 13.897143-15.36 0-6.582857 5.12-11.702857 10.971429-11.702857s10.971429 5.12 10.971428 11.702857c1.462857 21.942857-14.628571 39.497143-35.108571 39.497143zM653.897143 753.371429c-6.582857 0-11.702857-5.12-11.702857-11.702858 0-5.12-4.388571-9.508571-9.508572-9.508571-5.12 0-9.508571 4.388571-9.508571 9.508571 0 6.582857-5.12 11.702857-11.702857 11.702858-6.582857 0-11.702857-5.12-11.702857-11.702858 0-17.554286 14.628571-32.182857 32.914285-32.182857s32.914286 14.628571 32.914286 32.182857c0 6.582857-5.12 11.702857-11.702857 11.702858z" fill="#202021" />
  <path d="M318.171429 811.885714h-43.154286c-5.851429 0-10.971429-5.12-10.971429-10.971428s5.12-10.971429 10.971429-10.971429h43.154286c5.851429 0 10.971429 5.12 10.971428 10.971429s-5.12 10.971429-10.971428 10.971428z" fill="#FF6376" />
  <path d="M317.44 753.371429c-6.582857 0-11.702857-5.12-11.702857-11.702858 0-5.12-4.388571-9.508571-9.508572-9.508571-5.12 0-9.508571 4.388571-9.508571 9.508571 0 6.582857-5.12 11.702857-11.702857 11.702858s-11.702857-5.12-11.702857-11.702858c0-17.554286 14.628571-32.182857 32.914285-32.182857s32.914286 14.628571 32.914286 32.182857c0 6.582857-5.12 11.702857-11.702857 11.702858z" fill="#202021" />
  <path d="M841.142857 782.628571H731.428571V482.742857h168.228572c16.091429 0 29.257143 13.165714 29.257143 29.257143v182.857143c0 48.274286-39.497143 87.771429-87.771429 87.771428z m-73.142857-36.571428h73.142857c28.525714 0 51.2-22.674286 51.2-51.2V519.314286H768v226.742857z" fill="#383838" />
  <path d="M841.142857 782.628571H731.428571V482.742857h168.228572c16.091429 0 29.257143 13.165714 29.257143 29.257143v182.857143c0 48.274286-39.497143 87.771429-87.771429 87.771428z m-73.142857-36.571428h73.142857c28.525714 0 51.2-22.674286 51.2-51.2V519.314286H768v226.742857z" fill="#303030" />
  <path d="M358.4 201.142857c-10.24 0-18.285714-8.045714-18.285714-18.285714 0-49.737143 30.72-87.04 92.16-111.908572 9.508571-3.657143 19.748571 0.731429 24.137143 10.24 3.657143 9.508571-0.731429 19.748571-10.24 24.137143-46.811429 19.017143-68.754286 44.617143-68.754286 78.262857-0.731429 9.508571-8.777143 17.554286-19.017143 17.554286z" fill="#2F2F2F" />
  <path d="M493.714286 84.114286m-18.285715 0a18.285714 18.285714 0 1 0 36.571429 0 18.285714 18.285714 0 1 0-36.571429 0Z" fill="#2A2A2A" />
</svg>
