<?xml version="1.0" encoding="iso-8859-1"?>
<!-- Generator: Adobe Illustrator 19.0.0, SVG Export Plug-In . SVG Version: 6.00 Build 0)  -->
<svg version="1.1" id="Layer_1" xmlns="http://www.w3.org/2000/svg" xmlns:xlink="http://www.w3.org/1999/xlink" x="0px" y="0px"
	 viewBox="0 0 512 512" style="enable-background:new 0 0 512 512;" xml:space="preserve">
<circle style="fill:#273B7A;" cx="256" cy="256" r="256"/>
<path style="fill:#121149;" d="M511.879,263.601L409.514,161.235L251.988,369.786l-87.93-87.928l-95.791,45.806l184.292,184.292
	C253.707,511.972,254.85,512,256,512C394.842,512,507.857,401.468,511.879,263.601z"/>
<circle style="fill:#D0D1D3;" cx="256" cy="256" r="142.222"/>
<path style="fill:#A6A8AA;" d="M256,113.778c78.546,0,142.222,63.676,142.222,142.222S334.546,398.222,256,398.222V113.778z"/>
<path style="fill:#38C6D9;" d="M213.333,341.333c23.564,0,42.667-19.103,42.667-42.667S236.897,256,213.333,256
	c-5.011,0-9.818,0.871-14.284,2.458c0.034-0.815,0.062-1.634,0.062-2.458c0-31.418-25.471-56.889-56.889-56.889
	S85.333,224.582,85.333,256c0,0.81,0.028,1.615,0.06,2.417c-16.601,5.841-28.505,21.651-28.505,40.25
	c0,23.564,19.103,42.667,42.667,42.667H213.333z"/>
<path style="fill:#02B2B2;" d="M327.365,261.172c-18.151,0-32.865-14.714-32.865-32.865s14.714-32.865,32.865-32.865
	c3.86,0,7.563,0.671,11.004,1.893c-0.028-0.629-0.048-1.258-0.048-1.893c0-24.2,19.618-43.82,43.82-43.82
	c24.2,0,43.82,19.618,43.82,43.82c0,0.624-0.021,1.243-0.047,1.862c12.788,4.499,21.957,16.677,21.957,31.003
	c0,18.151-14.714,32.865-32.865,32.865H327.365z"/>
<ellipse style="fill:#A6A8AA;" cx="227.556" cy="156.444" rx="28.444" ry="14.222"/>
<circle style="fill:#808183;" cx="341.333" cy="312.889" r="28.444"/>
<circle style="fill:#A6A8AA;" cx="213.333" cy="355.556" r="12.929"/>
<g>
</g>
<g>
</g>
<g>
</g>
<g>
</g>
<g>
</g>
<g>
</g>
<g>
</g>
<g>
</g>
<g>
</g>
<g>
</g>
<g>
</g>
<g>
</g>
<g>
</g>
<g>
</g>
<g>
</g>
</svg>
